# xmcd
#
# Track frame offsets:
#	150
#	13460
#	24597
#	36944
#	48491
#	60690
#	76261
#	88004
#	103282
#	117442
#	132501
#	145159
#	159786
#	171364
#	183693
#
# Disc length: 2610 seconds
#
# Revision: 1
# Processed by: cddbd v1.5.2PL0 Copyright (c) Steve Scherf et al.
# Submitted via: audiograbber 1.83.01
#
DISCID=d50a300f
DTITLE=Rex Allen Jr. - Something Old, Something New
DYEAR=2004
DGENRE=Country
TTITLE0=The Great Mail Robbery
TTITLE1=Goodbye
TTITLE2=Two Less Lonely People
TTITLE3=I'm Getting Good At Missing You
TTITLE4=Don't Say Goodbye
TTITLE5=Air That I Breathe
TTITLE6=Deanna
TTITLE7=Second Time Around
TTITLE8=Arizona
TTITLE9=Don't Go Near The Indians
TTITLE10=Lonely Street
TTITLE11=No, No, I'd Rather Be Free
TTITLE12=With Love
TTITLE13=Drink It Down Lady
TTITLE14=It's Over
EXTD=
EXTT0=
EXTT1=
EXTT2=
EXTT3=
EXTT4=
EXTT5=
EXTT6=
EXTT7=
EXTT8=
EXTT9=
EXTT10=
EXTT11=
EXTT12=
EXTT13=
EXTT14=
PLAYORDER=
